<svg xmlns="http://www.w3.org/2000/svg" viewBox="0 0 512 640" x="0px" y="0px"><title>dice, game, gamble, pixel, digital, sign, art, nft</title><g><path d="M472,88V64H448V40H424V16H88V40H64V64H40V88H16V424H40v24H64v24H88v24H424V472h24V448h24V424h24V88ZM208,352H184v24H160V352H136V328h24V304h24v24h24Zm0-168H184v24H160V184H136V160h24V136h24v24h24ZM376,352H352v24H328V352H304V328h24V304h24v24h24Zm0-168H352v24H328V184H304V160h24V136h24v24h24Z"/></g><text x="0" y="527" fill="#000000" font-size="5px" font-weight="bold" font-family="'Helvetica Neue', Helvetica, Arial-Unicode, Arial, Sans-serif">Created by Kanyanee Watanajitkasem</text><text x="0" y="532" fill="#000000" font-size="5px" font-weight="bold" font-family="'Helvetica Neue', Helvetica, Arial-Unicode, Arial, Sans-serif">from the Noun Project</text></svg>